 <svg version="1.0" xmlns="http://www.w3.org/2000/svg" width="700.000000pt" height="162.000000pt" viewBox="0 0 700.000000 162.000000" preserveAspectRatio="xMidYMid meet">
<metadata>
Created by potrace 1.12, written by Peter Selinger 2001-2015
</metadata>
<g transform="translate(0.000000,162.000000) scale(0.100000,-0.100000)" fill="#000000" stroke="none">
<path d="M665 1471 c-11 -5 -38 -10 -61 -10 -22 -1 -49 -8 -60 -16 -10 -8 -26
-15 -35 -15 -21 0 -76 -27 -116 -56 -17 -13 -46 -24 -62 -24 -44 0 -91 -44
-91 -85 0 -18 -6 -38 -14 -44 -8 -7 -21 -26 -30 -44 -9 -18 -21 -39 -25 -47
-18 -30 -41 -88 -41 -103 0 -9 -4 -19 -10 -22 -17 -11 -13 -307 5 -341 8 -16
15 -37 15 -46 0 -20 41 -98 76 -145 13 -17 24 -45 24 -61 0 -38 58 -92 99 -92
15 0 45 -11 65 -25 20 -14 43 -25 50 -25 8 0 19 -7 26 -15 7 -8 24 -15 39 -15
15 0 33 -6 39 -13 18 -17 245 -23 309 -7 26 6 60 14 75 17 15 3 33 11 39 19 6
8 18 14 25 14 8 0 32 11 54 25 24 15 54 25 76 25 52 0 104 55 104 110 0 21 4
41 9 45 17 10 71 112 71 132 0 12 7 26 15 33 8 7 15 27 15 44 0 17 8 61 17 98
16 63 16 70 0 121 -9 29 -17 70 -17 89 0 20 -7 41 -15 48 -8 7 -15 20 -15 30
0 22 -26 76 -56 117 -14 18 -24 46 -24 65 -1 51 -48 98 -99 98 -22 0 -42 4
-46 9 -8 15 -116 71 -135 71 -9 0 -21 5 -28 12 -21 21 -233 44 -267 29z m170
-42 c22 -6 54 -14 70 -18 54 -13 155 -65 161 -83 3 -9 0 -27 -6 -38 -10 -18
-14 -19 -27 -9 -18 15 -51 36 -73 44 -8 4 -23 11 -32 16 -10 5 -26 9 -37 9
-10 0 -35 7 -54 15 -47 19 -173 19 -207 0 -14 -8 -39 -14 -57 -15 -17 0 -35
-4 -38 -10 -3 -5 -13 -10 -21 -10 -8 0 -28 -9 -43 -21 -31 -23 -71 -19 -71 6
0 17 61 65 81 65 8 0 20 5 26 11 10 10 40 20 123 39 51 11 159 11 205 -1z
m-478 -144 c10 -10 13 -24 9 -41 -6 -21 -12 -25 -39 -22 -25 2 -33 8 -35 26
-7 44 34 67 65 37z m823 0 c21 -25 -6 -67 -39 -63 -27 3 -39 33 -27 64 7 19
50 18 66 -1z m-350 -51 c100 -35 151 -67 205 -128 30 -33 55 -67 55 -74 0 -7
7 -20 15 -28 8 -9 15 -28 15 -44 0 -16 5 -32 10 -35 6 -3 10 -42 10 -85 0 -43
-4 -82 -10 -85 -5 -3 -10 -17 -10 -30 0 -36 -36 -100 -92 -160 -74 -81 -188
-130 -298 -127 -73 2 -140 14 -151 28 -6 8 -20 14 -29 14 -10 0 -20 3 -22 8
-1 4 -22 19 -45 35 -24 15 -55 46 -70 70 -16 23 -31 44 -35 45 -5 2 -8 10 -8
18 0 8 -7 26 -17 40 -13 20 -16 50 -16 142 1 113 2 119 33 177 18 33 41 72 52
87 21 30 148 118 171 118 8 0 30 7 48 15 45 19 133 19 189 -1z m-549 -60 c16
-15 16 -41 -1 -54 -18 -14 -60 -124 -74 -198 -16 -78 -16 -89 -1 -160 23 -105
35 -139 69 -195 29 -49 28 -60 -9 -71 -18 -5 -27 6 -63 75 -23 44 -42 91 -42
104 0 12 -7 42 -15 65 -8 23 -15 69 -15 102 0 32 7 75 15 95 8 19 15 46 15 59
0 14 4 32 9 42 5 9 19 39 32 65 41 82 43 87 53 87 5 0 17 -7 27 -16z m943 4
c7 -7 23 -35 37 -63 13 -27 27 -51 32 -53 4 -2 7 -16 7 -30 1 -15 7 -38 15
-52 10 -18 14 -59 14 -140 0 -81 -4 -122 -14 -140 -8 -14 -14 -34 -15 -46 0
-20 -50 -123 -72 -151 -13 -17 -30 -16 -53 1 -18 13 -17 14 7 47 78 104 111
295 72 414 -21 63 -34 96 -45 115 -5 8 -13 25 -18 37 -6 11 -15 24 -22 28 -8
6 -5 13 12 26 29 22 27 22 43 7z m-854 -751 c0 -13 -9 -32 -20 -42 -19 -17
-21 -17 -40 0 -11 10 -20 29 -20 42 0 20 5 23 40 23 35 0 40 -3 40 -23z m814
1 c8 -13 6 -22 -8 -37 -11 -12 -23 -21 -27 -21 -16 0 -39 33 -39 56 0 22 4 25
31 22 18 -2 37 -11 43 -20z m-669 -78 c61 -28 117 -41 214 -47 46 -3 77 -1 84
6 6 6 27 11 47 11 20 0 45 7 56 15 10 8 25 15 32 15 7 0 30 11 52 25 48 30 57
31 65 4 8 -25 -11 -48 -62 -72 -21 -10 -51 -25 -66 -33 -16 -8 -44 -14 -62
-14 -19 0 -37 -4 -40 -10 -8 -13 -192 -13 -200 0 -3 6 -22 10 -42 10 -19 0
-47 6 -61 14 -15 7 -44 22 -65 32 -21 11 -45 27 -54 37 -15 16 -15 19 2 37 16
17 21 18 34 7 9 -8 39 -24 66 -37z"></path>
<path d="M593 1110 c-49 -25 -112 -84 -113 -104 0 -5 -6 -17 -13 -25 -36 -43
-44 -142 -21 -250 8 -41 132 -171 163 -171 10 0 32 -7 47 -15 75 -39 225 5
299 87 58 64 75 110 75 209 0 102 -20 152 -90 219 -63 60 -117 80 -214 79 -67
-1 -90 -6 -133 -29z m225 -117 c37 -25 57 -44 71 -71 16 -29 24 -152 10 -152
-5 0 -12 -8 -16 -17 -10 -28 -45 -63 -64 -63 -9 0 -22 -7 -29 -15 -23 -28 -90
-19 -147 20 -62 41 -78 70 -86 147 -4 43 -2 58 9 62 8 3 14 13 14 23 0 11 20
32 48 50 39 27 57 32 105 33 38 0 67 -6 85 -17z m-301 -180 c-3 -10 -5 -2 -5
17 0 19 2 27 5 18 2 -10 2 -26 0 -35z m429 -30 c-10 -10 -19 5 -10 18 6 11 8
11 12 0 2 -7 1 -15 -2 -18z"></path>
<path d="M3375 1243 c-7 -5 -10 -139 -10 -383 l0 -375 65 0 65 0 3 162 2 162
29 20 c22 16 45 21 88 21 90 0 92 -3 95 -201 l3 -164 65 0 65 0 -1 191 c-1
168 -3 194 -20 220 -27 42 -34 48 -84 67 -60 22 -108 21 -166 -3 -26 -12 -53
-19 -60 -16 -10 4 -14 43 -16 153 l-3 148 -55 3 c-30 1 -60 -1 -65 -5z"></path>
<path d="M6134 1207 c-3 -8 -4 -36 -2 -63 l3 -49 65 0 65 0 0 60 0 60 -63 3
c-47 2 -64 -1 -68 -11z"></path>
<path d="M1677 1163 c-16 -4 -17 -27 -15 -341 l3 -337 68 -3 67 -3 0 208 c0
114 4 214 9 221 10 17 46 -20 110 -114 44 -65 50 -69 88 -72 41 -3 41 -3 99
80 63 89 88 118 104 118 6 0 11 -84 12 -217 l3 -218 65 0 65 0 3 337 2 338
-25 6 c-42 10 -146 -1 -155 -17 -4 -8 -39 -62 -77 -121 -51 -80 -73 -107 -89
-108 -16 0 -39 26 -93 106 -39 58 -71 110 -71 115 0 23 -113 38 -173 22z"></path>
<path d="M3053 1163 c-21 -4 -22 -11 -25 -91 l-3 -87 -28 -3 c-28 -3 -28 -4
-25 -65 3 -56 5 -62 28 -67 25 -6 25 -7 32 -140 9 -188 20 -216 103 -245 46
-16 55 -17 95 -4 l45 14 3 53 3 52 -38 0 c-22 0 -44 5 -51 12 -8 8 -12 53 -12
134 l0 123 53 3 52 3 0 60 0 60 -50 5 -50 5 -3 85 c-2 52 -8 87 -15 92 -12 8
-75 8 -114 1z"></path>
<path d="M2567 973 c-4 -3 -7 -30 -7 -59 0 -61 4 -64 99 -64 55 0 71 -4 86
-20 17 -19 17 -20 0 -26 -10 -4 -32 -2 -49 4 -83 30 -187 0 -232 -67 -23 -35
-26 -48 -22 -99 5 -73 34 -117 95 -143 55 -24 91 -24 155 -1 47 16 50 16 62 0
17 -23 134 -26 142 -5 3 8 1 100 -3 205 -8 189 -9 192 -36 220 -15 15 -51 35
-82 45 -55 17 -195 24 -208 10z m171 -269 c14 -10 22 -26 22 -44 0 -66 -128
-110 -164 -58 -22 31 -20 70 4 96 25 27 103 30 138 6z"></path>
<path d="M4051 964 c-82 -26 -119 -85 -106 -172 11 -74 59 -106 190 -127 22
-4 48 -11 57 -16 21 -11 24 -39 6 -57 -17 -17 -151 -15 -195 3 -63 26 -73 22
-73 -34 0 -29 6 -53 14 -60 19 -16 154 -51 196 -50 41 0 126 27 157 50 12 8
29 29 38 45 19 37 20 133 0 161 -18 25 -87 63 -118 63 -33 1 -115 24 -127 36
-6 6 -8 18 -4 28 6 15 18 17 98 13 50 -2 104 -8 119 -12 l28 -8 -3 58 -3 58
-65 18 c-76 21 -148 22 -209 3z"></path>
<path d="M4540 961 c-96 -39 -140 -114 -140 -240 0 -123 41 -187 142 -222 64
-22 104 -24 149 -5 79 32 79 32 79 -19 0 -40 -5 -52 -31 -76 -29 -27 -36 -29
-114 -29 -51 0 -96 6 -118 15 -20 8 -39 15 -42 15 -3 0 -5 -28 -5 -63 l0 -63
48 -13 c87 -24 194 -26 253 -5 68 24 124 77 138 131 7 27 10 136 9 315 l-3
273 -63 3 c-57 3 -64 1 -69 -18 -6 -22 -14 -21 -82 6 -45 19 -96 17 -151 -5z
m205 -127 c23 -15 25 -22 25 -104 0 -83 -1 -89 -25 -104 -19 -13 -43 -16 -92
-14 -58 3 -68 6 -85 29 -41 54 -32 150 17 191 27 23 126 24 160 2z"></path>
<path d="M5143 962 c-64 -27 -96 -54 -127 -112 -25 -45 -29 -64 -29 -130 0
-66 4 -85 29 -130 33 -60 70 -92 134 -114 82 -27 125 -30 200 -10 91 23 104
36 85 89 -11 33 -17 39 -37 37 -92 -14 -175 -13 -203 3 -34 18 -59 51 -50 65
4 6 73 10 161 10 l154 0 0 73 c0 64 -4 79 -32 127 -25 41 -45 60 -83 79 -63
31 -144 37 -202 13z m157 -127 c26 -31 5 -45 -67 -45 -85 0 -105 10 -79 39 24
26 126 30 146 6z"></path>
<path d="M5542 733 l3 -248 63 -3 62 -3 0 158 c0 87 4 164 9 171 15 25 63 42
116 42 46 0 56 -4 75 -27 19 -25 21 -39 20 -172 -1 -80 -1 -152 0 -159 0 -10
18 -12 67 -10 l68 3 -3 180 c-3 193 -5 206 -34 247 -44 63 -146 81 -256 47
-39 -12 -45 -12 -53 4 -8 13 -24 17 -75 17 l-64 0 2 -247z"></path>
<path d="M6135 968 c-3 -7 -4 -119 -3 -248 l3 -235 65 0 65 0 0 245 0 245 -63
3 c-44 2 -64 -1 -67 -10z"></path>
<path d="M6495 963 c-64 -26 -94 -51 -125 -106 -26 -46 -30 -62 -30 -134 0
-98 20 -151 76 -204 47 -43 146 -75 203 -64 63 12 129 36 135 51 6 15 -22 104
-32 104 -4 -1 -18 -7 -32 -15 -14 -8 -51 -14 -83 -15 -51 0 -62 4 -86 28 -52
51 -52 168 -1 217 28 27 32 27 119 23 l91 -4 0 53 c0 49 -2 54 -27 65 -47 19
-163 20 -208 1z"></path>
</g>
</svg>